<svg width="143" height="143" viewBox="0 0 143 143" fill="none" xmlns="http://www.w3.org/2000/svg">
<path d="M49.6147 113.033L57.6974 108.37C60.6817 106.66 61.6765 102.836 59.9667 99.8829L56.858 94.5049" stroke="#404145" stroke-width="4.66304" stroke-miterlimit="10"/>
<path d="M40.7311 103.83L41.8814 105.789C43.187 108.058 44.8968 110.048 46.8864 111.726C46.8864 111.726 58.9481 120.244 62.8029 123.415C68.8959 128.42 65.0411 132.897 62.0879 134.606L59.3833 136.161C54.0053 139.269 49.1868 134.793 46.6377 132.741C44.0885 130.689 30.7211 121.052 30.7211 121.052C28.7005 119.405 26.9907 117.384 25.7161 115.115L24.5659 113.156" fill="#FEA650"/>
<path d="M40.7311 103.83L41.8814 105.789C43.187 108.058 44.8968 110.048 46.8864 111.726C46.8864 111.726 58.9481 120.244 62.8029 123.415C68.8959 128.42 65.0411 132.897 62.0879 134.606L59.3833 136.161C54.0053 139.269 49.1868 134.793 46.6377 132.741C44.0885 130.689 30.7211 121.052 30.7211 121.052C28.7005 119.405 26.9907 117.384 25.7161 115.115L24.5659 113.156" stroke="#404145" stroke-width="4.66304" stroke-miterlimit="10"/>
<path d="M87.0742 41.1589C93.0118 37.7083 100.721 39.9465 104.048 45.6976C107.374 51.4798 105.447 59.2515 99.509 62.6711" fill="#FEA650"/>
<path d="M87.0742 41.1589C93.0118 37.7083 100.721 39.9465 104.048 45.6976C107.374 51.4798 105.447 59.2515 99.509 62.6711" stroke="#404145" stroke-width="4.66304" stroke-miterlimit="10"/>
<path d="M44.7349 54.8374C53.8745 49.5526 61.584 31.5533 66.4336 15.7922C67.2419 13.212 70.7547 12.8389 72.0914 15.1705L112.971 85.9866C114.339 88.3492 112.256 91.1781 109.613 90.5874C93.5414 86.9192 74.1121 84.5876 64.9414 89.8724L32.6421 108.525C28.3531 110.991 23.2613 111.656 18.4829 110.374C13.7044 109.092 9.62928 105.967 7.15076 101.685L5.59642 98.9809C3.13025 94.692 2.46529 89.6001 3.74731 84.8217C5.02933 80.0433 8.15372 75.9681 12.4355 73.4896L44.7349 54.8374ZM44.7349 54.8374L64.9414 89.8413" stroke="#404145" stroke-width="4.66304" stroke-miterlimit="10"/>
<path d="M102.369 26.58L107.84 6.21802M119.777 56.7343L140.17 62.2056M114.306 39.7919L131.528 29.8441" stroke="#404145" stroke-width="4.66304" stroke-miterlimit="10" stroke-linecap="round"/>
</svg>
