<svg width="120" height="93" viewBox="0 0 120 93" fill="none" xmlns="http://www.w3.org/2000/svg">
<path d="M90.9871 3.33811C90.9015 1.94918 92.0338 0.814669 93.3894 0.857942L93.6312 0.877661L117.617 4.09904C118.897 4.27076 119.794 5.44747 119.622 6.72682C119.461 7.92605 118.417 8.79034 117.233 8.75211L116.995 8.73252L95.8257 5.88925L97.1389 27.2093C97.2256 28.5972 96.0923 29.7328 94.7366 29.6895L94.4959 29.6687L73.3298 26.8244L74.6465 48.1391C74.7311 49.5269 73.5999 50.6626 72.2443 50.6194L72.0024 50.5996L50.8307 47.7584L52.1405 69.0817C52.2262 70.4684 51.0938 71.6052 49.7382 71.5619L49.4975 71.5411L28.3258 68.7L29.6321 90.0263C29.7179 91.4131 28.5867 92.5488 27.231 92.5055L26.9891 92.4857L2.99291 89.2739C1.71463 89.1033 0.815489 87.9266 0.987211 86.6473C1.14833 85.448 2.19151 84.5837 3.37537 84.6208L3.61388 84.6415L24.7913 87.4752L23.4872 66.1488C23.4016 64.7599 24.5339 63.6253 25.8895 63.6686L26.1302 63.6894L47.2997 66.5305L45.9921 45.2073C45.9075 43.8195 47.0388 42.6839 48.3944 42.7271L48.6351 42.7479L69.8046 45.589L68.4902 24.2722C68.4034 22.8843 69.5369 21.7487 70.8925 21.792L71.1343 21.8117L92.2981 24.6581L90.9871 3.33811Z" fill="#FFDBA9" fill-opacity="0.2"/>
</svg>
